<?xml version="1.0" encoding="UTF-8"?>
<svg height="160px" enable-background="new 0 0 1024 608" version="1.1" viewBox="0 0 1024 608" xml:space="preserve" xmlns="http://www.w3.org/2000/svg">
<path d="m91.597 94.574c18.252-15.301 38.498-18.825 60.032-10.062 21.328 8.6791 33.617 25.065 35.74 48.297 2.4796 27.135-11.905 49.931-37.392 59.503-3.3294 1.2504-4.7816 2.9133-4.6271 6.5327 0.25552 5.9887 0.1523 11.996 0.074753 17.994-0.03598 2.782 1.1057 4.1792 3.8456 4.8889 12.738 3.2997 23.567 9.9878 32.693 19.353 2.2604 2.3196 3.9319 2.2183 6.3913 0.64014 4.3436-2.7872 8.6717-5.7081 13.337-7.8541 4.7914-2.204 5.7472-5.1499 4.9582-10.208-2.9958-19.206 2.3235-36.153 16.187-49.751 16.728-16.406 37.074-20.863 59.071-13.733 21.356 6.9214 34.366 22.314 38.422 44.545 4.472 24.507-6.8306 48.486-27.905 60.328-22.096 12.416-48.44 9.6977-67.413-7.1756-2.2879-2.0347-3.8909-2.3441-6.4547-0.75787-5.3811 3.3293-10.873 6.4947-16.45 9.4858-2.6228 1.407-3.5865 2.9699-2.6791 5.9494 3.9393 12.935 3.8046 25.923 0.001404 38.867-0.67654 2.3027-0.14551 3.6642 2.021 4.8412 5.4141 2.9413 10.826 5.9213 16.001 9.2554 3.3194 2.1388 5.59 1.9353 8.7533-0.63611 18.093-14.708 38.148-17.917 59.896-9.2165 23.108 9.2444 37.237 33.003 35.147 58.897-1.9314 23.926-20.864 45.471-44.495 50.635-36.124 7.8931-69.411-17.812-70.914-54.773-0.1841-4.5254 0.53249-8.9844 1.4729-13.371 0.57374-2.6765 0.085784-4.4637-2.3595-5.8392-5.6626-3.1854-11.304-6.4149-16.854-9.7917-2.3308-1.4182-3.9213-0.85538-5.673 0.92929-9.4236 9.6008-20.665 16.208-33.592 19.865-2.5795 0.72986-3.485 2.1007-3.4566 4.6295 0.071045 6.3316 0.13843 12.668-0.043457 18.995-0.088638 3.0836 1.3325 4.3046 4.0435 5.317 24.52 9.1574 37.658 27.361 38.562 53.044 1.1801 33.553-25.217 57.996-54.745 59.317-32.158 1.4391-57.192-20.469-60.742-52.47-2.8004-25.242 13.707-50.881 38.736-59.453 4.5231-1.5489 6.0121-3.689 5.6849-8.2136-0.34758-4.8072-0.28574-9.6728 0.004441-14.488 0.2434-4.0393-1.2017-5.7355-5.2308-6.8444-25.594-7.0441-42.86-23.323-50.494-48.702-11.772-39.137 8.9644-80.708 50.247-91.535 4.1757-1.0952 5.7454-2.8809 5.4395-7.1573-0.34386-4.8075-0.32011-9.6777 0.02021-14.487 0.30377-4.2928-1.0636-6.3436-5.3507-7.9415-20.786-7.7478-34.086-22.551-38.09-44.467-3.7744-20.657 2.5403-38.476 18.179-53.181m9.1124 227.21c13.732 13.581 35.457 14.117 49.015 6.2661 16.434-9.5159 24.659-28.423 19.9-46.991-4.4962-17.541-21.488-30.65-39.781-30.69-16.967-0.03656-32.116 9.6459-38.482 25.322-6.8873 16.959-3.5781 32.236 9.3479 46.093m147.21 25.575c-8.2419 6.2951-11.533 14.685-10.641 24.903 1.1532 13.202 15.061 24.691 28.31 23.324 14.958-1.5428 25.831-15.216 24.531-29.228-1.7528-18.893-24.05-31.469-42.201-18.999m-117.63-182.76c2.866-0.052276 5.5877-0.82765 8.2419-1.7954 12.047-4.3928 18.966-16.367 17.079-29.463-1.6818-11.67-12.634-21.553-24.396-22.014-15.434-0.60496-27.596 10.391-28.139 25.439-0.55408 15.354 10.747 27.287 27.215 27.834m-23.688 267.58c-0.58856 1.1924-1.2574 2.3524-1.7531 3.5822-4.3489 10.789-1.0216 23.789 7.8374 30.74 9.6861 7.6004 22.376 8.0317 31.994 1.0875 9.7884-7.0676 13.742-19.254 9.7574-30.554-3.5486-10.062-11.065-15.887-21.265-17.429-10.976-1.6599-19.797 2.8323-26.57 12.574m183.44-215.24c0.80194-2.1779-0.060943-4.2905-0.34625-6.3959-1.4323-10.569-9.1491-18.705-20.22-21.473-9.8964-2.4752-21.005 1.512-27.024 9.6998-6.6752 9.0803-7.1388 21.315-1.1533 30.435 6.3557 9.6841 16.796 13.856 28.623 11.438 10.262-2.0983 18.222-11.226 20.12-23.704z" fill="currentColor"/>
<path d="m809.04 393.27c-9.5634 0.015564-18.732-0.1839-27.885 0.10107-4.1608 0.12952-6.7292-1.4556-9.1732-4.6517-10.319-13.494-20.854-26.824-31.329-40.198-1.0169-1.2983-2.165-2.494-3.2951-3.7865-3.6121 1.0139-4.1127 3.5886-4.1026 6.6145 0.040466 12.16-0.10864 24.323 0.078308 36.48 0.062378 4.0587-1.2255 5.7163-5.4212 5.5171-5.6511-0.26834-11.339-0.31744-16.984 0.006379-4.7383 0.27176-6.3956-1.3226-6.334-6.2024 0.23566-18.654 0.086243-37.313 0.086365-55.971 3.05e-4 -45.31-0.002319-90.621 0.023804-135.93 0.001342-2.3023-0.3797-4.6582 0.77197-7.5377 8.2114 0 16.648-0.024734 25.085 0.01915 1.8688 0.009735 2.5671 1.2979 2.6192 2.9962 0.056213 1.831 0.092407 3.6634 0.092651 5.4951 0.004456 35.815-0.007385 71.63 0.028809 107.45 0.001953 1.931-0.47223 3.9528 0.5351 5.8996 2.0889-0.28876 2.9931-2.0365 4.226-3.2585 9.8177-9.7318 19.634-19.466 29.335-29.314 2.2691-2.3033 4.6605-3.3721 7.9311-3.3111 9.1589 0.17099 18.323 0.048401 27.485 0.092499 1.4369 0.006897 3.013-0.39911 5.0091 1.6015-16.61 16.135-33.2 32.25-50.336 48.896 6.049 7.5637 12.023 15.06 18.026 22.534 11.264 14.024 22.571 28.013 33.769 42.089 0.91931 1.1556 4.0107 2.7934-0.24231 4.3726z" fill="currentColor"/>
<path d="m456.11 362.91c7.8646 9.8139 15.505 19.353 23.151 28.898-2.2407 2.0414-4.1525 1.4385-5.889 1.452-8.3295 0.064636-16.665-0.14758-24.987 0.10495-3.7747 0.11456-6.1261-1.3112-8.3644-4.2145-10.577-13.719-21.339-27.295-32.047-40.913-0.90997-1.1574-1.9005-2.2514-2.8708-3.3953-3.7176 1.0378-4.0769 3.7156-4.0679 6.6891 0.036194 11.995-0.087433 23.992 0.10895 35.984 0.069061 4.2178-1.1852 6.0885-5.6898 5.8641-6.1493-0.3063-12.326-0.176-18.488-0.057007-3.3783 0.065216-4.5559-1.0819-4.548-4.682 0.13748-62.807 0.11612-125.62 0.18231-188.42 0.004181-3.9669-0.75775-7.9693 0.34168-12.286 6.0029-1.1867 12.127-0.15266 18.2-0.36302 10.069-0.34876 9.9948-2.4464 9.9754 10.09-0.053955 34.819-0.036956 69.639-0.047821 104.46-7.63e-4 2.4379-9.1e-5 4.8758-9.1e-5 7.557 2.8173-0.63754 3.904-2.4168 5.2614-3.7663 9.4513-9.3969 18.92-18.778 28.232-28.312 2.6252-2.6881 5.3553-4.0257 9.2094-3.9196 8.8232 0.24295 17.658 0.047027 26.487 0.10965 1.5667 0.011078 3.3331-0.5697 4.7013 0.89957 0.028382 2.2266-1.8808 3.0631-3.1086 4.2597-14.314 13.95-28.623 27.906-43.095 41.691-2.887 2.7499-3.1132 4.6509-0.50116 7.795 9.3651 11.273 18.444 22.783 27.855 34.477z" fill="currentColor"/>
<path d="m568.54 383.97c-1.7283-0.76282-2.605 0.55347-3.5367 1.3186-27.745 22.782-73.885 11.644-85.494-30.426-6.3577-23.04-4.3162-45.322 11.509-64.667 18.615-22.755 50.04-26.055 73.157-7.9119 1.1594 0.90985 2.3934 1.7246 3.4444 2.4774 1.1082-0.3367 1.1308-1.0623 1.1303-1.6984-0.00824-10.246-0.37109-9.2028 9.7318-9.2652 4.6642-0.028808 9.3392 0.173 13.99-0.083252 4.2077-0.23187 5.6526 1.645 5.5779 5.5962-0.11963 6.3278-0.022644 12.66-0.020569 18.99 0.009582 29.319 0.02832 58.637 0.019348 87.956-0.002136 6.9597-0.091248 7.0129-6.9069 7.0239-5.3307 0.008545-10.682-0.29535-15.986 0.078583-5.1635 0.36401-7.0771-1.6677-6.3765-6.6311 0.11407-0.80789-0.067871-1.6576-0.23828-2.7575m-12.824-82.256c-20.766-11.751-42.92-2.4575-48.834 20.598-1.7526 6.8333-1.8749 13.751-0.57578 20.777 2.5507 13.794 12.782 25.148 25.15 27.415 14.073 2.5805 27.279-3.2433 34.142-15.322 8.5359-15.024 7.4272-40.993-9.8821-53.468z" fill="currentColor"/>
<path d="m930.24 374c0.003418 4.8316-0.25732 9.184 0.080383 13.489 0.37366 4.7636-1.663 6.119-6.1134 5.8809-5.4824-0.29334-11.01-0.34958-16.485 0.007691-4.8547 0.3168-6.7661-1.4828-6.1824-6.2585 0.15601-1.2765-0.12958-2.6069-0.21716-3.9876-2.3911-0.27325-3.2547 1.715-4.6064 2.6977-27.193 19.771-62.939 11.945-79.366-17.44-14.408-25.773-10.764-60.696 8.4551-81.043 18.811-19.914 47.852-22.384 69.717-5.9247 1.5914 1.198 3.1516 2.4375 5.1876 4.0153 0.27905-1.8289 0.68085-3.3577 0.71716-4.8952 0.14252-6.0404-0.91211-6.8669 7.69-6.7848 5.1643 0.049255 10.343 0.23816 15.49-0.058625 4.4694-0.25766 5.7186 1.5776 5.7014 5.8369-0.12726 31.321-0.068969 62.643-0.068725 94.465m-27.318-43.313c-0.049194-5.0741-1.3583-9.8697-3.2744-14.517-8.0614-19.552-32.022-25.852-48.64-12.802-16.249 12.761-17.665 43.198-2.7185 58.41 14.829 15.092 40.133 11.291 50.026-7.4471 3.7736-7.1478 4.9411-14.757 4.6072-23.644z" fill="currentColor"/>
<path d="m685.27 280.14c-0.007324 5.6452-0.14862 10.813 0.021729 15.971 0.11475 3.4748-1.4274 4.8273-4.7217 4.812-6.8292-0.031739-13.66 0.088684-20.488-0.009796-3.3132-0.047821-4.5606 0.89926-4.5255 4.6221 0.25934 27.48 0.19482 54.963 0.3465 82.444 0.022827 4.1357-1.6464 5.5643-5.6927 5.3818-5.6522-0.25488-11.341-0.34268-16.983 0.010437-4.9478 0.30975-6.6603-1.2673-6.6155-6.4345 0.23016-26.484 0.016602-52.971 0.16907-79.455 0.025085-4.3634-0.54523-7.1572-5.8005-6.6507-3.1058 0.29935-3.9022-1.8662-3.8909-4.5332 0.024597-5.8299 0.070922-11.661 0.002746-17.49-0.040344-3.4507 1.1866-5.4738 4.9702-5.0316 3.9008 0.45599 4.732-1.5791 4.6996-5.0568-0.12738-13.658-0.012878-27.318-0.047607-40.977-0.013611-5.3484 0.42212-10.653 1.6658-15.841 4.6924-19.575 21.645-30.862 41.592-27.795 15.183 2.3342 15.307 2.4781 15.296 17.605-0.003662 4.7961-5.49e-4 9.5921-5.49e-4 13.989-1.9428 1.4138-3.0542 0.3943-4.235-0.086365-2.3113-0.94087-4.5683-2.055-6.942-2.7957-11.68-3.6447-17.463 0.14186-17.885 12.278-0.5199 14.961-0.48071 29.941-0.76392 44.911-0.052551 2.7756 0.98474 3.8551 3.7989 3.8004 6.6605-0.12952 13.334 0.1683 19.985-0.11407 4.5049-0.19122 6.657 1.3075 6.0442 6.4461z" fill="currentColor"/>
<path d="m511.67 226.88c-0.002319-7.9654 0.12433-15.45-0.056549-22.927-0.087097-3.6006 1.1493-5.2419 4.8608-5.0561 4.8096 0.24077 9.6379 0.13629 14.443 0.42717 3.7993 0.23001 6.7776 2.1767 7.9019 5.8745 1.1638 3.8279 1.0083 7.7765-2.59 10.403-2.9418 2.147-2.4426 4.0307-0.67822 6.6244 2.1948 3.2263 4.9838 6.197 5.8068 10.425-3.5521 1.3701-6.1664 0.91867-8.1179-2.4839-1.5659-2.7302-3.441-5.289-5.2625-7.8648-1.4224-2.0115-3.3898-2.9866-5.9166-3.1722-3.3096-0.24318-5.1074 0.65054-4.6455 4.3883 0.22192 1.7953-0.03357 3.6508-0.086548 5.4786-0.057983 2.0003 0.17828 4.2252-2.8512 4.1931-2.6269-0.027847-2.7024-1.9372-2.7688-3.8312-0.023285-0.66449-0.024841-1.3297-0.038849-2.4785m6.9858-22.135c-1.4667 3.1501-3.0613 6.9302 1.0609 8.6394 2.7908 1.1572 6.5074 0.79244 9.7133-0.34209 2.251-0.7966 3.616-2.2999 3.3548-4.834-0.24457-2.374-1.9677-3.5291-4.015-3.6999-3.1049-0.25916-6.2478-0.062088-10.114 0.23662z" fill="currentColor"/>
<path d="m457.82 204.62c-2.9897 6.3395-1.9599 8.1466 4.2153 8.2077 2.9991 0.029709 5.9993 0.003296 8.9969 0.080933 1.8856 0.048828 3.2397 0.78146 3.0982 2.9978-0.12836 2.0112-1.5437 2.3842-3.1478 2.4048-3.6655 0.046997-7.3354 0.14642-10.997 0.019958-3.3099-0.11433-3.8453 1.7797-3.7811 4.4598 0.062134 2.5946-0.11938 5.177 3.6558 5.1527 4.1648-0.026764 8.333 7.6e-5 12.495 0.14958 1.8426 0.066192 3.8676 0.32472 3.6813 2.9756-0.17072 2.4283-2.1275 2.2243-3.7413 2.2386-5.9984 0.053329-11.999-0.059174-17.996 0.056381-2.9836 0.057495-4.2917-1.2502-4.2826-4.1345 0.027497-8.6647 0.049591-17.329 0.056305-25.994 0.002228-2.8478 1.2879-4.3167 4.2364-4.2956 5.6652 0.040481 11.331-0.028946 16.996 0.027847 1.8687 0.018738 3.8957 0.20021 3.877 2.7939-0.019531 2.7138-2.1771 2.5233-3.9776 2.5642-4.3296 0.098298-8.6611 0.11047-13.385 0.29456z" fill="currentColor"/>
<path d="m439.51 223.22c-1.1512-2.7594-3.4015-3.362-5.6636-4.0245-3.1794-0.9312-6.4192-1.7489-9.4659-3.0169-3.5683-1.4851-5.3561-4.4596-5.0937-8.3448 0.25488-3.773 2.1348-6.5138 5.7385-8.0531 6.2587-2.6733 14.723-1.0614 17.76 3.6255 1.2449 1.9214 2.8225 4.3473 0.25067 6.1428-2.3605 1.6479-3.9119-0.21289-5.043-2.3129-1.2394-2.3011-3.3434-3.1134-5.8426-3.0816-2.6999 0.034256-5.8522-0.048905-6.5367 3.2015-0.79764 3.7874 2.7442 3.8698 5.1534 4.6676 3.1452 1.0416 6.5204 1.6006 9.4374 3.0768 6.6663 3.3736 7.2756 11.368 1.4848 16.092-6.6564 5.4306-19.391 3.1203-22.556-4.2025-0.70514-1.6315-2.3488-3.8069 0.26471-5.2316 2.4316-1.3255 3.9179-0.12947 5.0103 2.2831 1.6622 3.6712 5.0479 4.7351 8.7082 4.5068 3.0762-0.19185 5.9552-1.1786 6.3932-5.3285z" fill="currentColor"/>
<path d="m578.06 228.7c0.014526-8.7734-0.001282-17.083 0.073608-25.391 0.018494-2.0463 0.28101-4.2224 3.1276-4.1157 2.7513 0.10309 2.8632 2.1754 2.9908 4.2791 0.55353 9.1197 3.3417 11.06 12.63 9.0876 2.0297-0.43109 2.7801-1.5107 2.7832-3.4353 0.00415-2.4919 0.045288-4.9844 0.11786-7.4752 0.046692-1.6008 0.99213-2.4122 2.5333-2.491 1.7683-0.090286 2.937 0.70679 2.9442 2.5641 0.037293 9.6376 0.030579 19.275 0.016297 28.913-0.002197 1.5203-0.63861 2.5322-2.3538 2.5686-1.7421 0.036896-2.9739-0.61397-3.0717-2.4647-0.14026-2.6522-0.25952-5.3191-0.13611-7.968 0.14221-3.0535-0.81683-4.4684-4.1781-4.6195-10.829-0.48685-10.809-0.60657-11.301 10.455-0.084778 1.9046 0.39178 4.2384-2.5352 4.593-3.0919 0.37465-3.5837-1.6454-3.6411-4.5003z" fill="currentColor"/>
<path d="m508.46 229.8c0.41696 1.4814 1.0511 2.7938-0.61044 3.2486-1.5993 0.43768-3.3687 0.66379-4.6436-0.76059-0.63898-0.71394-0.9726-1.7212-1.3695-2.6285-2.548-5.825-7.5317-8.1193-13.374-6.0993-2.8336 0.97974-2.9532 3.8472-3.867 6.0284-1.3108 3.1287-2.9984 4.6633-6.2971 3.0434-0.80255-1.4873-0.2084-2.7129 0.26828-3.9455 3.2924-8.5136 6.5768-17.03 9.8892-25.536 0.78171-2.0073 1.4361-4.103 4.2725-4.1401 2.9229-0.038178 3.997 1.862 4.9128 4.1244 3.5492 8.7679 7.1245 17.525 10.819 26.666m-12.634-15.436c-0.79346-2.1059-1.5869-4.2118-2.7319-7.2507-1.8004 4.1422-3.1765 7.2195-3.6754 11.352 2.6107-1.2334 7.0331 3.077 6.4073-4.1011z" fill="currentColor"/>
<path d="m548.13 203.14c8.3967-6.3759 18.631-5.8468 23.32 1.0708 0.99286 1.4648 3.1653 3.375 0.95398 5.1879-2.1937 1.7985-4.2566 0.93086-5.7616-1.5422-2.0444-3.3594-5.1154-4.6447-8.975-3.7149-4.1566 1.0014-6.5686 3.7139-7.3636 7.8766-0.56976 2.9834-0.51849 5.9989 0.1344 8.9383 0.90503 4.0745 3.2881 6.9833 7.5917 7.6001 4.0317 0.57784 7.2819-0.98877 9.0197-4.7646 1.6787-3.6473 3.7821-3.7017 6.5228-1.3492-1.2157 6.5763-4.9445 10.314-11.393 11.483-6.1445 1.1144-12.592-1.5978-15.611-6.5673-4.3359-7.1358-3.8086-16.833 1.5624-24.219z" fill="currentColor"/>
</svg>
