<svg xmlns="http://www.w3.org/2000/svg" viewBox="0 0 203.07 248.19"><g data-name="Layer 2"><g data-name="Layer 1"><path d="m17.69 92.7 39.2 67.3a6.76 6.76 0 0 0 5.7 3.3l77.9.2a6.8 6.8 0 0 0 5.8-3.3l39.1-67.8a6.68 6.68 0 0 0 0-6.7l-39.1-67.4a6.76 6.76 0 0 0-5.7-3.3l-77.9-.2a6.8 6.8 0 0 0-5.8 3.3L17.69 86a6.68 6.68 0 0 0 0 6.7Zm128.1-73.4 38.6 66.5a6.68 6.68 0 0 1 0 6.7l-38.6 66.9a6.59 6.59 0 0 1-5.8 3.3l-76.9-.2a6.52 6.52 0 0 1-5.7-3.3l-38.7-66.5a6.68 6.68 0 0 1 0-6.7l38.6-66.9a6.59 6.59 0 0 1 5.8-3.3l77 .2a6.55 6.55 0 0 1 5.7 3.3Z" style="fill:none;stroke:#ed8936;stroke-miterlimit:10;stroke-width:3px"/><path d="m2.63 93.3 46.2 79.5a7.89 7.89 0 0 0 6.79 3.9l91.91.3a7.91 7.91 0 0 0 6.8-3.9l46.2-80a8 8 0 0 0 0-7.9l-46.2-79.5a7.89 7.89 0 0 0-6.8-3.9l-91.91-.3a7.88 7.88 0 0 0-6.79 3.9l-46.21 80a7.48 7.48 0 0 0 .01 7.9ZM153.72 6.7l45.6 78.5a8 8 0 0 1 0 7.9l-45.6 79a7.89 7.89 0 0 1-6.8 3.9l-90.7-.3a7.89 7.89 0 0 1-6.8-3.9L3.73 93.3a8 8 0 0 1 0-7.9l45.6-79a7.89 7.89 0 0 1 6.79-3.9l90.7.3a7.94 7.94 0 0 1 6.9 3.9Z" style="stroke:#ed8936;stroke-miterlimit:10;stroke-width:3px"/><path fill="rgb(237, 137, 54)" d="M136.31 105.4c-.1.8-.1 1.5-.2 2.3a9.31 9.31 0 0 1-2.2 5.2 7.25 7.25 0 0 1-6.5 2.5 11.09 11.09 0 0 1-4.7-1.7 2.09 2.09 0 0 1-.6-.4l-.3.6a51.08 51.08 0 0 1-10.3 16.4 53.6 53.6 0 0 1-8.3 7.5 2.18 2.18 0 0 0-.5.4 2 2 0 0 1-2.3 0 50.79 50.79 0 0 1-5.7-4.7 57 57 0 0 1-10.6-13.4 49.78 49.78 0 0 1-2.9-6.2.76.76 0 0 0-.2-.4 10 10 0 0 1-1.4.8 10.3 10.3 0 0 1-5.1 1.4 7.36 7.36 0 0 1-6.8-4.8 12.06 12.06 0 0 1-.8-4.6v-.5c-.6.1-1.1.1-1.6.2a20.44 20.44 0 0 1-9.5-.8c-5.2-1.7-8.2-5.4-9.1-10.8a14.17 14.17 0 0 1 4.5-12.9A28.35 28.35 0 0 1 60 75.8a60.91 60.91 0 0 1 14.9-4.5c3.1-.6 6.2-1 9.3-1.4.3 0 .4-.1.4-.5a16.55 16.55 0 0 1 5-13.3 35 35 0 0 1 3-2.4c.2-.1.3-.2.2-.5a11.09 11.09 0 0 0-7.1-6.6.65.65 0 0 0-.8.2 3.79 3.79 0 0 1-5.7-5 3.68 3.68 0 0 1 5.2-.6c.4.3.6.7 1 1a.85.85 0 0 0 .5.3 14.62 14.62 0 0 1 10.5 8.8c.2.4.3.5.8.4a17.17 17.17 0 0 1 9 0c.4.1.6.1.7-.3a14.87 14.87 0 0 1 5.6-6.8 13.11 13.11 0 0 1 4.7-2 1.13 1.13 0 0 0 .8-.5 3.65 3.65 0 0 1 4.2-1.5 3.77 3.77 0 1 1-4 6.1.62.62 0 0 0-.7-.2 10.79 10.79 0 0 0-7.2 6.6c-.1.3.1.4.2.5a17.91 17.91 0 0 1 4.9 4.6 16.06 16.06 0 0 1 3 11c0 .4.2.4.5.5a108.3 108.3 0 0 1 14.9 2.7 62 62 0 0 1 11.8 4.4 23.9 23.9 0 0 1 7.2 5.4 14.56 14.56 0 0 1 3.7 8.6 13.57 13.57 0 0 1-4.2 11.4 13.26 13.26 0 0 1-6.7 3.3 24.76 24.76 0 0 1-9 .1c-.09-.2-.19-.2-.29-.2Zm-31.4-32.9c.1.2.2.3.2.5a88.71 88.71 0 0 0 15.8 20.3 31 31 0 0 0 14.4 7.9 22.88 22.88 0 0 0 9.4.3 9.28 9.28 0 0 0 5.5-2.9A9.94 9.94 0 0 0 152 88.2a13 13 0 0 0-4.6-5.8 31.85 31.85 0 0 0-8.1-4.4 82.27 82.27 0 0 0-17.6-4.3 139.4 139.4 0 0 0-14.5-1.2Zm-6.5 0h-.5l-7.3.3a122 122 0 0 0-14.8 1.8 59.68 59.68 0 0 0-12.5 3.6 27.26 27.26 0 0 0-8.9 5.4 11 11 0 0 0-3.8 9.3 9 9 0 0 0 6.7 8.2 16.5 16.5 0 0 0 6.6.6 29.5 29.5 0 0 0 12.2-3.8 34.22 34.22 0 0 0 7.8-6.3 83 83 0 0 0 13.5-17.7 17 17 0 0 0 1-1.4Zm-9.8-3.5H89c3.7-.2 7.4-.4 11.1-.5a132.88 132.88 0 0 1 14.1.5c.3 0 .4-.1.4-.4a12 12 0 0 0-.3-3.8 12.94 12.94 0 0 0-12.7-10.1 13.15 13.15 0 0 0-12.7 9.9 12.74 12.74 0 0 0-.29 4.4Zm29.8 40.8a.31.31 0 0 1-.1-.2 38.37 38.37 0 0 1-4.2-6.3c-.2-.4-.4-.5-.8-.3a41.28 41.28 0 0 1-11.1 1.5 43.54 43.54 0 0 1-12.4-1.6c-.4-.1-.5 0-.7.3-.9 1.5-1.8 3-2.8 4.5-.5.7-1 1.4-1.6 2.1a44.67 44.67 0 0 0 33.7 0Zm-32.5 4.6c0 .2.1.2.1.3a49.33 49.33 0 0 0 4.7 8c.1.1.3.3.4.3a29.67 29.67 0 0 0 7.8 1.9 28.77 28.77 0 0 0 13-1.8 1.47 1.47 0 0 0 .6-.5 48.89 48.89 0 0 0 4.2-6.9c.2-.4.4-.8.6-1.3a47 47 0 0 1-31.4 0Zm26.2-15.2a.76.76 0 0 1-.1-.4c-.8-2.2-1.6-4.4-2.3-6.7-.3-.9-.3-.9-1.2-.8a44.46 44.46 0 0 1-14.1-.1c-.3 0-.4 0-.5.3-.8 2.4-1.7 4.8-2.5 7.2a.37.37 0 0 1-.1.3 38.65 38.65 0 0 0 20.8.2Zm1.6-7.6v.4a67.18 67.18 0 0 0 3.5 8.8 29.11 29.11 0 0 0 5.6 7.9 9.91 9.91 0 0 0 4.5 2.7 3.61 3.61 0 0 0 4.5-2.4 9.21 9.21 0 0 0 .5-4c0-.4-.2-.5-.5-.7a33.59 33.59 0 0 1-10.3-5.3 80.53 80.53 0 0 1-6.8-6.3 11 11 0 0 0-1-1.1Zm-24.1 0c-.2 0-.2.1-.3.2l-3.9 3.9a32.84 32.84 0 0 1-8.6 6.3c-1.8.8-3.6 1.5-5.5 2.3-.2.1-.4.2-.4.4a8.67 8.67 0 0 0 .6 4.5 3.65 3.65 0 0 0 4.1 2.2 6.77 6.77 0 0 0 3.1-1.4 20.64 20.64 0 0 0 4.9-5.3 48 48 0 0 0 5.7-12.4c.2-.2.2-.4.3-.7Zm12-16.8c-.1.2-.2.3-.3.5-1.7 2.7-3.4 5.4-5.2 8.1a4.59 4.59 0 0 0-.7 1.6c-.2.8-.4 1.6-.6 2.5a43.66 43.66 0 0 0 13.5 0c0-.2 0-.3-.1-.4-.2-.9-.4-1.7-.6-2.6a4.88 4.88 0 0 0-.3-.7c-1.5-2.3-3-4.6-4.6-7-.3-.6-.71-1.3-1.1-2Zm-6 53.8.2.2 5.6 5a.38.38 0 0 0 .6 0c1.8-1.7 3.7-3.3 5.5-5 .1-.1.1-.2.2-.3a37.81 37.81 0 0 1-12.1.1ZM60.44 247.75v-41.14h15.17a16.06 16.06 0 0 1 7.27 1.45 10 10 0 0 1 4.3 3.91 10.8 10.8 0 0 1 1.43 5.51 9.55 9.55 0 0 1-.9 4.33 7.73 7.73 0 0 1-2.41 2.88 9.85 9.85 0 0 1-3.4 1.56v.06a8.06 8.06 0 0 1 4 1.37 9.74 9.74 0 0 1 3.19 3.52 11.17 11.17 0 0 1 1.25 5.45 10.9 10.9 0 0 1-1.48 5.67 10.08 10.08 0 0 1-4.55 4 18.41 18.41 0 0 1-7.86 1.46Zm6.31-23.48h8.5a8.61 8.61 0 0 0 3.76-.8 6.45 6.45 0 0 0 2.63-2.23 6 6 0 0 0 1-3.43 5.62 5.62 0 0 0-1.76-4.17q-1.75-1.72-5.48-1.72h-8.65Zm0 18h9.11q4.45 0 6.36-1.71a5.53 5.53 0 0 0 1.92-4.29 6.59 6.59 0 0 0-1-3.54 7.18 7.18 0 0 0-2.77-2.54 8.84 8.84 0 0 0-4.3-1h-9.32ZM104.75 248.19a13.73 13.73 0 0 1-7.36-1.91 13 13 0 0 1-4.84-5.28 17.45 17.45 0 0 1-1.72-7.91 17.87 17.87 0 0 1 1.69-7.94 12.93 12.93 0 0 1 4.8-5.38 13.41 13.41 0 0 1 7.29-1.94 13 13 0 0 1 7.17 1.92 12.47 12.47 0 0 1 4.6 5.37A18.73 18.73 0 0 1 118 233v1.54H93.54v-4.39h18.59a7.92 7.92 0 0 0-1.06-3.92 7.22 7.22 0 0 0-2.7-2.62 7.59 7.59 0 0 0-3.81-.95 7.28 7.28 0 0 0-4.11 1.14 7.65 7.65 0 0 0-2.66 3 8.82 8.82 0 0 0-.92 3.95v3.72a9.87 9.87 0 0 0 .92 4.4 7.79 7.79 0 0 0 2.73 3.19 7.48 7.48 0 0 0 4.26 1.19 8.5 8.5 0 0 0 3.13-.58 7.31 7.31 0 0 0 2.49-1.6 5.7 5.7 0 0 0 1.45-2.41h5.76a10.92 10.92 0 0 1-2.34 5 12 12 0 0 1-4.48 3.33 14.93 14.93 0 0 1-6.04 1.2ZM132.27 248.19a13.73 13.73 0 0 1-7.36-1.91 13 13 0 0 1-4.84-5.32 17.32 17.32 0 0 1-1.72-7.91 17.73 17.73 0 0 1 1.69-7.94 12.93 12.93 0 0 1 4.8-5.38 13.39 13.39 0 0 1 7.29-1.94 13 13 0 0 1 7.17 1.92 12.53 12.53 0 0 1 4.6 5.37 18.73 18.73 0 0 1 1.59 7.94v1.54h-24.43v-4.39h18.59a7.92 7.92 0 0 0-1.06-3.92 7.3 7.3 0 0 0-2.7-2.62 7.6 7.6 0 0 0-3.82-.95 7.27 7.27 0 0 0-4.1 1.14 7.65 7.65 0 0 0-2.66 3 8.69 8.69 0 0 0-.92 3.95v3.72a9.87 9.87 0 0 0 .92 4.4 7.76 7.76 0 0 0 2.72 3.19 7.54 7.54 0 0 0 4.27 1.19 8.5 8.5 0 0 0 3.13-.58 7.31 7.31 0 0 0 2.49-1.6 5.8 5.8 0 0 0 1.45-2.41h5.76a11.13 11.13 0 0 1-2.34 5 12 12 0 0 1-4.48 3.33 14.93 14.93 0 0 1-6.04 1.18Z"/></g></g></svg>
